<svg xmlns="http://www.w3.org/2000/svg" viewBox="0 0 1000 1000" xml:space="preserve"><switch><g><circle fill="#f7d454" cx="500" cy="500" r="398"/><circle fill="#000" cx="500" cy="500" r="344.3"/><path fill="#ff7a00" d="M693.5 515v-3.9c0-51.7-20.1-100.3-56.7-136.8-36.5-36.5-85.1-56.7-136.8-56.7s-100.3 20.1-136.8 56.7c-36.5 36.5-56.7 85.1-56.7 136.8v7.8c0 51.7 20.1 100.3 56.7 136.8 36.5 36.5 85.1 56.7 136.8 56.7s100.3-20.1 136.8-56.7c36.5-36.5 56.7-85.1 56.7-136.8V515zM535.3 398.9c10.4 26.3 17 59.9 18.9 96.5H445.8c2-36.6 8.5-70.2 18.9-96.5 10.3-26 23.8-42.2 35.3-42.2s25 16.2 35.3 42.2zm-70.6 240c-11.1-28.1-17.9-64.7-19.3-104.3h109.1c-1.4 39.6-8.1 76.2-19.3 104.3-10.3 26-23.8 42.2-35.3 42.2s-24.9-16.2-35.2-42.2zm121.2-143.5c-1.5-43.6-9-84.2-21.5-115.9-1.6-4-3.3-7.9-5-11.5 53.1 21 92.6 69.2 101 127.4h-74.5zM440.6 368c-1.7 3.7-3.4 7.5-5 11.5-12.5 31.6-20 72.3-21.5 115.9h-74.5c8.4-58.1 47.9-106.4 101-127.4zm-26.5 166.6c1.5 43.6 9 84.2 21.5 115.9 3.1 7.8 6.4 14.9 10 21.2-58-20.7-100.9-73.6-107-137.1h75.5zm150.3 115.8c12.5-31.6 20-72.3 21.5-115.9h75.5c-6.1 63.5-49 116.4-107 137.1 3.6-6.3 6.9-13.4 10-21.2zM463.4 246.4c0 .1 0 .3-.1.4-.1.6-.2 1.1-.3 1.7 0 .2 0 .4-.1.6-.1.5-.1 1.1-.1 1.6v.6c0 .7-.1 1.4-.1 2.2 0 .7 0 1.5.1 2.2v.2c.3 5.5 1.9 10.7 4.4 15.3.3.5.6 1 .9 1.6 6.5 10.7 18.3 17.9 31.8 17.9 19.7 0 35.8-15.4 37-34.8v-.1c0-.7.1-1.5.1-2.2 0-.7 0-1.4-.1-2.2v-.6c0-.5-.1-1.1-.1-1.6 0-.2 0-.4-.1-.6-.1-.6-.2-1.1-.3-1.7 0-.1 0-.3-.1-.4-1.8-9.6-7.4-18-15.1-23.4-.4-.3-.7-.5-1.1-.8-.6-.4-1.2-.8-1.9-1.1-5.4-3.1-11.7-4.9-18.4-4.9-13.5 0-25.2 7.2-31.8 17.9-.3.5-.6 1-.9 1.6-1.3 2.5-2.4 5.1-3.2 7.9-.1.3-.2.6-.2.9 0 .5-.1 1.1-.3 1.8zM537 786.7c0-.7 0-1.4-.1-2.2v-.6c0-.5-.1-1.1-.1-1.6 0-.2 0-.4-.1-.6-.1-.6-.2-1.1-.3-1.7 0-.1 0-.3-.1-.4-3.3-17.2-18.3-30.2-36.5-30.2-8.6 0-16.5 2.9-22.8 7.9-1.2.9-2.3 1.9-3.4 3-1.8 1.8-3.5 3.9-4.9 6-.7 1.1-1.3 2.2-1.9 3.3-1.6 3.1-2.7 6.4-3.4 9.9 0 .1 0 .3-.1.4-.1.6-.2 1.1-.3 1.7 0 .2 0 .4-.1.6-.1.5-.1 1.1-.1 1.6v.6c0 .7-.1 1.4-.1 2.2 0 .7 0 1.5.1 2.2v.2c.3 5.5 1.9 10.7 4.4 15.3.3.5.6 1 .9 1.6 6.5 10.7 18.3 17.9 31.8 17.9 19.7 0 35.8-15.4 37-34.8v-.1c.1-.7.1-1.5.1-2.2zM803.6 522.2c0-.7.1-1.5.1-2.2 0-.7 0-1.4-.1-2.2v-.6c0-.5-.1-1.1-.1-1.6 0-.2 0-.4-.1-.6-.1-.6-.2-1.1-.3-1.7 0-.1 0-.3-.1-.4-3.3-17.2-18.3-30.2-36.5-30.2-18.1 0-33.2 13-36.5 30.2 0 .1 0 .3-.1.4-.1.6-.2 1.1-.3 1.7 0 .2 0 .4-.1.6-.1.5-.1 1.1-.1 1.6v.6c0 .7-.1 1.4-.1 2.2 0 .7 0 1.5.1 2.2v.1c1.2 19.4 17.3 34.8 37 34.8s35.8-15.4 37-34.8c.2 0 .2 0 .2-.1zM270.4 520c0-.7 0-1.4-.1-2.2v-.6c0-.5-.1-1.1-.1-1.6 0-.2 0-.4-.1-.6-.1-.6-.2-1.1-.3-1.7 0-.1 0-.3-.1-.4-3.3-17.2-18.3-30.2-36.5-30.2-18.1 0-33.2 13-36.5 30.2 0 .1 0 .3-.1.4-.1.6-.2 1.1-.3 1.7 0 .2 0 .4-.1.6-.1.5-.1 1.1-.1 1.6v.6c0 .7-.1 1.4-.1 2.2 0 .7 0 1.5.1 2.2v.2c1.2 19.4 17.3 34.8 37 34.8s35.8-15.4 37-34.8v-.1c.2-.8.3-1.6.3-2.3zM725.5 328.7c0-.5-.1-1.1-.1-1.6 0-.2 0-.4-.1-.6-.1-.6-.2-1.1-.3-1.7 0-.1 0-.3-.1-.4-1.7-9.1-6.8-17.1-14-22.5-.7-.6-1.5-1.1-2.3-1.6-.6-.4-1.2-.8-1.9-1.1-5.4-3.1-11.7-4.9-18.4-4.9-18.1 0-33.2 13-36.5 30.2 0 .1 0 .3-.1.4-.1.6-.2 1.1-.3 1.7 0 .2 0 .4-.1.6-.1.5-.1 1.1-.1 1.6v.6c0 .7-.1 1.4-.1 2.2 0 .7 0 1.5.1 2.2v.1c1.2 19.4 17.3 34.8 37 34.8s35.8-15.4 37-34.8v-.1c0-.7.1-1.5.1-2.2 0-.7 0-1.4-.1-2.2.3-.3.3-.5.3-.7zM348.5 708.6c0-.7 0-1.4-.1-2.2v-.6c0-.5-.1-1.1-.1-1.6 0-.2 0-.4-.1-.6-.1-.6-.2-1.1-.3-1.7 0-.1 0-.3-.1-.4-3.3-17.2-18.3-30.2-36.5-30.2-8.9 0-17.1 3.1-23.5 8.3-1 .8-1.9 1.6-2.8 2.5-5.2 5.2-8.8 11.8-10.2 19.3 0 .1 0 .3-.1.4-.1.6-.2 1.1-.3 1.7 0 .2 0 .4-.1.6-.1.5-.1 1.1-.1 1.6v.6c0 .7-.1 1.4-.1 2.2 0 .7 0 1.5.1 2.2v.2c1.2 19.4 17.3 34.8 37 34.8s35.8-15.4 37-34.8v-.1c.3-.7.3-1.5.3-2.2zM725.6 708.6c0-.7 0-1.4-.1-2.2v-.6c0-.5-.1-1.1-.1-1.6 0-.2 0-.4-.1-.6-.1-.6-.2-1.1-.3-1.7 0-.1 0-.3-.1-.4-3.3-17.2-18.3-30.2-36.5-30.2-8.8 0-16.9 3.1-23.3 8.2-.6.5-1.2 1-1.7 1.5-5.8 5.3-9.9 12.4-11.4 20.5 0 .1 0 .3-.1.4-.1.6-.2 1.1-.3 1.7 0 .2 0 .4-.1.6-.1.5-.1 1.1-.1 1.6v.6c0 .7-.1 1.4-.1 2.2 0 .7 0 1.5.1 2.2v.1c1.2 19.4 17.3 34.8 37 34.8s35.8-15.4 37-34.8v-.1c.2-.7.2-1.5.2-2.2zM274.5 326.5c0 .2 0 .4-.1.6-.1.5-.1 1.1-.1 1.6v.6c0 .7-.1 1.4-.1 2.2 0 .7 0 1.5.1 2.2v.2c1.2 19.4 17.3 34.8 37 34.8s35.8-15.4 37-34.8v-.1c0-.7.1-1.5.1-2.2 0-.7 0-1.4-.1-2.2v-.6c0-.5-.1-1.1-.1-1.6 0-.2 0-.4-.1-.6-.1-.6-.2-1.1-.3-1.7 0-.1 0-.3-.1-.4-1.7-9.1-6.8-17.1-14-22.5-.7-.6-1.5-1.1-2.3-1.6-.6-.4-1.2-.8-1.9-1.1-.7-.4-1.4-.8-2.2-1.2h-.1c-4.9-2.3-10.3-3.7-16.1-3.7-18.1 0-33.2 13-36.5 30.2 0 .1 0 .3-.1.4.2.4.1 1 0 1.5z"/><g><path fill="#000" d="M500 684.6c-51.7 0-100.3-20.1-136.8-56.7-36.5-36.5-56.7-85.1-56.7-136.8 0-51.7 20.1-100.3 56.7-136.8 36.5-36.5 85.1-56.7 136.8-56.7s100.3 20.1 136.8 56.7c36.5 36.5 56.7 85.1 56.7 136.8 0 51.7-20.1 100.3-56.7 136.8-36.5 36.6-85.1 56.7-136.8 56.7zm0-355.7c-89.4 0-170 72.7-170 162.2 0 89.4 80.6 177.8 170 177.8s170-88.4 170-177.8-80.6-162.2-170-162.2z"/><path fill="#FF7A00" d="M500 692.4c-51.7 0-100.3-20.1-136.8-56.7-36.5-36.5-56.7-85.1-56.7-136.8 0-51.7 20.1-100.3 56.7-136.8 36.5-36.5 85.1-56.7 136.8-56.7s100.3 20.1 136.8 56.7c36.5 36.5 56.7 85.1 56.7 136.8 0 51.7-20.1 100.3-56.7 136.8-36.5 36.6-85.1 56.7-136.8 56.7zm0-355.6c-89.4 0-162.2 72.7-162.2 162.2 0 89.4 72.7 162.2 162.2 162.2S662.2 588.5 662.2 499c0-89.5-72.8-162.2-162.2-162.2z"/><path fill="#FF7A00" d="M500 321.1c-98.2 0-177.8 79.6-177.8 177.8 0 98.2 79.6 177.8 177.8 177.8s177.8-79.6 177.8-177.8c0-98.2-79.6-177.8-177.8-177.8zm0 340c-89.4 0-162.2-72.7-162.2-162.2 0-89.4 72.7-162.2 162.2-162.2s162.2 72.7 162.2 162.2c0 89.4-72.8 162.2-162.2 162.2z"/><path fill="#000" d="M500 684.6c-25.7 0-48.6-22-64.4-62-14-35.4-21.8-82.1-21.8-131.5 0-49.4 7.7-96.1 21.8-131.5 15.8-40 38.7-62 64.4-62s48.6 22 64.4 62c14 35.4 21.8 82.1 21.8 131.5 0 49.4-7.7 96.1-21.8 131.5-15.8 40-38.7 62-64.4 62zm0-355.7c-11.5 0-25 16.2-35.3 42.2-12.6 31.8-19.5 74.4-19.5 120 0 45.6-.9 88.2 11.7 120 10.3 26 31.7 57.9 43.1 57.9s32.8-31.8 43.1-57.9c12.6-31.8 11.7-74.4 11.7-120 0-45.6-6.9-88.2-19.5-120-10.3-26-23.8-42.2-35.3-42.2z"/><path fill="#FF7A00" d="M500 692.4c-25.7 0-48.6-22-64.4-62-14-35.4-21.8-82.1-21.8-131.5 0-49.4 7.7-96.1 21.8-131.5 15.8-40 38.7-62 64.4-62s48.6 22 64.4 62c14 35.4 21.8 82.1 21.8 131.5 0 49.4-7.7 96.1-21.8 131.5-15.8 40-38.7 62-64.4 62zm0-355.6c-11.5 0-25 16.2-35.3 42.2-12.6 31.8-19.5 74.4-19.5 120 0 45.6 6.9 88.2 19.5 120 10.3 26 23.8 42.2 35.3 42.2s25-16.2 35.3-42.2c12.6-31.8 19.5-74.4 19.5-120 0-45.6-6.9-88.2-19.5-120-10.3-26.1-23.8-42.2-35.3-42.2z"/><path fill="#FF7A00" d="M500 321.1c-38.9 0-70.5 79.6-70.5 177.8 0 98.2 31.6 177.8 70.5 177.8s70.5-79.6 70.5-177.8c0-98.2-31.6-177.8-70.5-177.8zm0 340c-11.5 0-25-16.2-35.3-42.2-12.6-31.8-19.5-74.4-19.5-120 0-45.6 6.9-88.2 19.5-120 10.3-26 23.8-42.2 35.3-42.2s25 16.2 35.3 42.2c12.6 31.8 19.5 74.4 19.5 120 0 45.6-6.9 88.2-19.5 120-10.3 26-23.8 42.2-35.3 42.2z"/><path fill="#000" d="M678.1 484.2H322l1.7-8.8h352.6z"/><path fill="#FF7A00" d="M320.7 483.2h358.4v31.3H320.7z"/><path fill="#FF7A00" d="m322.2 498.9.6 15.7h354.4l.5-15.7z"/><g><circle fill="#FEDE3A" cx="499.9" cy="233.3" r="37.1"/><path fill="#FFF335" d="M499.9 205.2c19 0 34.6 14.2 36.9 32.6.2-1.5.3-3 .3-4.5 0-20.5-16.6-37.1-37.1-37.1s-37.1 16.6-37.1 37.1c0 1.5.1 3 .3 4.5 2.1-18.3 17.7-32.6 36.7-32.6z"/><path fill="#E7AD27" d="M499.9 252.4c-17.4 0-32-12-36-28.1-.7 2.9-1.1 5.9-1.1 9 0 20.5 16.6 37.1 37.1 37.1s37.1-16.6 37.1-37.1c0-3.1-.4-6.1-1.1-9-4 16.2-18.6 28.1-36 28.1z"/></g><g><circle fill="#FEDE3A" cx="499.9" cy="766.7" r="37.1"/><path fill="#FFF335" d="M499.9 738.5c19 0 34.6 14.2 36.9 32.6.2-1.5.3-3 .3-4.5 0-20.5-16.6-37.1-37.1-37.1s-37.1 16.6-37.1 37.1c0 1.5.1 3 .3 4.5 2.1-18.3 17.7-32.6 36.7-32.6z"/><path fill="#E7AD27" d="M499.9 785.8c-17.4 0-32-12-36-28.1-.7 2.9-1.1 5.9-1.1 9 0 20.5 16.6 37.1 37.1 37.1s37.1-16.6 37.1-37.1c0-3.1-.4-6.1-1.1-9-4 16.1-18.6 28.1-36 28.1z"/></g><g><circle fill="#FEDE3A" cx="766.6" cy="500" r="37.1"/><path fill="#FFF335" d="M766.6 471.9c19 0 34.6 14.2 36.9 32.6.2-1.5.3-3 .3-4.5 0-20.5-16.6-37.1-37.1-37.1s-37.1 16.6-37.1 37.1c0 1.5.1 3 .3 4.5 2.1-18.4 17.7-32.6 36.7-32.6z"/><path fill="#E7AD27" d="M766.6 519.1c-17.4 0-32-12-36-28.1-.7 2.9-1.1 5.9-1.1 9 0 20.5 16.6 37.1 37.1 37.1s37.1-16.6 37.1-37.1c0-3.1-.4-6.1-1.1-9-4 16.1-18.6 28.1-36 28.1z"/></g><g><circle fill="#FEDE3A" cx="233.2" cy="500" r="37.1"/><path fill="#FFF335" d="M233.2 471.9c19 0 34.6 14.2 36.9 32.6.2-1.5.3-3 .3-4.5 0-20.5-16.6-37.1-37.1-37.1s-37.1 16.6-37.1 37.1c0 1.5.1 3 .3 4.5 2.1-18.4 17.8-32.6 36.7-32.6z"/><path fill="#E7AD27" d="M233.2 519.1c-17.4 0-32-12-36-28.1-.7 2.9-1.1 5.9-1.1 9 0 20.5 16.6 37.1 37.1 37.1s37.1-16.6 37.1-37.1c0-3.1-.4-6.1-1.1-9-4 16.1-18.6 28.1-36 28.1z"/></g><g><circle fill="#FEDE3A" cx="688.5" cy="311.4" r="37.1"/><path fill="#FFF335" d="M688.5 283.3c19 0 34.6 14.2 36.9 32.6.2-1.5.3-3 .3-4.5 0-20.5-16.6-37.1-37.1-37.1s-37.1 16.6-37.1 37.1c0 1.5.1 3 .3 4.5 2-18.3 17.7-32.6 36.7-32.6z"/><path fill="#E7AD27" d="M688.5 330.5c-17.4 0-32-12-36-28.1-.7 2.9-1.1 5.9-1.1 9 0 20.5 16.6 37.1 37.1 37.1s37.1-16.6 37.1-37.1c0-3.1-.4-6.1-1.1-9-4 16.2-18.6 28.1-36 28.1z"/></g><g><circle fill="#FEDE3A" cx="311.3" cy="688.6" r="37.1"/><path fill="#FFF335" d="M311.3 660.4c19 0 34.6 14.2 36.9 32.6.2-1.5.3-3 .3-4.5 0-20.5-16.6-37.1-37.1-37.1s-37.1 16.6-37.1 37.1c0 1.5.1 3 .3 4.5 2.1-18.3 17.8-32.6 36.7-32.6z"/><path fill="#E7AD27" d="M311.3 707.7c-17.4 0-32-12-36-28.1-.7 2.9-1.1 5.9-1.1 9 0 20.5 16.6 37.1 37.1 37.1s37.1-16.6 37.1-37.1c0-3.1-.4-6.1-1.1-9-4 16.1-18.6 28.1-36 28.1z"/></g><g><circle fill="#FEDE3A" cx="688.5" cy="688.6" r="37.1"/><path fill="#FFF335" d="M688.5 660.4c19 0 34.6 14.2 36.9 32.6.2-1.5.3-3 .3-4.5 0-20.5-16.6-37.1-37.1-37.1s-37.1 16.6-37.1 37.1c0 1.5.1 3 .3 4.5 2-18.3 17.7-32.6 36.7-32.6z"/><path fill="#E7AD27" d="M688.5 707.7c-17.4 0-32-12-36-28.1-.7 2.9-1.1 5.9-1.1 9 0 20.5 16.6 37.1 37.1 37.1s37.1-16.6 37.1-37.1c0-3.1-.4-6.1-1.1-9-4 16.1-18.6 28.1-36 28.1z"/></g><g><circle fill="#FEDE3A" cx="311.3" cy="311.4" r="37.1"/><path fill="#FFF335" d="M311.3 283.3c19 0 34.6 14.2 36.9 32.6.2-1.5.3-3 .3-4.5 0-20.5-16.6-37.1-37.1-37.1s-37.1 16.6-37.1 37.1c0 1.5.1 3 .3 4.5 2.1-18.3 17.8-32.6 36.7-32.6z"/><path fill="#E7AD27" d="M311.3 330.5c-17.4 0-32-12-36-28.1-.7 2.9-1.1 5.9-1.1 9 0 20.5 16.6 37.1 37.1 37.1s37.1-16.6 37.1-37.1c0-3.1-.4-6.1-1.1-9-4 16.2-18.6 28.1-36 28.1z"/></g></g></g></switch></svg>