<svg xmlns="http://www.w3.org/2000/svg" viewBox="0 0 38 38" xml:space="preserve"><path fill="#f7d454" d="M29.3 31H8.7c-2.1 0-3.9-1.3-4.7-3.2C3.4 26 3 24 3 22c0-8.8 7.2-16 16-16s16 7.2 16 16c0 2-.4 4.1-1.1 5.8-.7 1.9-2.6 3.2-4.6 3.2zM19 8C11.3 8 5 14.3 5 22c0 1.8.3 3.6.9 5.1.5 1.1 1.6 1.9 2.8 1.9h20.6c1.2 0 2.4-.8 2.8-1.9.6-1.6.9-3.4.9-5.1 0-7.7-6.3-14-14-14z"/><path fill="#faf0e6" d="m14 15.1-1.5-1.8-.8.6 1.5 1.8c.3-.2.5-.4.8-.6zM20 11h-1v2.5c.3 0 .7 0 1 .1V11zM11.9 17.3l-2-1.2-.5.9 2 1.2c.1-.4.3-.7.5-.9zM26.7 18.3 29 17l-.5-.9-2.3 1.3c.2.3.3.6.5.9zM10.7 20l-2.3-.4-.2 1 2.3.4c.1-.3.1-.6.2-1zM22.6 14.2l.9-2.4-.9-.3-.9 2.4.9.3zM27.5 21.1l2.7-.5-.2-1-2.7.5c.1.3.2.7.2 1zM25 15.9l1.7-2-.8-.6-1.7 2c.3.2.6.4.8.6zM16.7 13.8l-.8-2.3-.9.3.8 2.3.9-.3zM27.3 24l2.7.5.2-1-2.7-.5c-.1.3-.1.7-.2 1zM10.5 23.1l-2.3.4.2 1 2.3-.4c-.1-.4-.1-.7-.2-1z"/><g fill="#ff7a00"><path d="m19 21 7.7-7.7M19 22c-.3 0-.5-.1-.7-.3-.4-.4-.4-1 0-1.4l7.7-7.7c.4-.4 1-.4 1.4 0 .4.4.4 1 0 1.4l-7.7 7.7c-.2.2-.4.3-.7.3z"/></g><g><circle fill="#faf0e6" cx="19" cy="21" r="2.5"/></g><g><path fill="#f7d454" d="M23.1 27h-8.3c-.5 0-.9-.4-.9-.9v-.3c0-.5.4-.9.9-.9h8.3c.5 0 .9.4.9.9v.3c0 .6-.4.9-.9.9z"/></g></svg>