<svg xmlns="http://www.w3.org/2000/svg" viewBox="0 0 32 32"><g data-name="54-Note Book"><path fill="#f7d454" d="M9 2h18V0H7a4 4 0 0 0-4 4v1H1a2 2 0 0 0 2 2v3H1a2 2 0 0 0 2 2v3H1a2 2 0 0 0 2 2v3H1a2 2 0 0 0 2 2v3H1a2 2 0 0 0 2 2v1a4 4 0 0 0 4 4h15v-2H9zM7 30a2 2 0 0 1-2-2v-1h2zm0-5H5v-3h2zm0-5H5v-3h2zm0-5H5v-3h2zm0-5H5V7h2zm0-5H5V4a2 2 0 0 1 2-2z"/><path fill="#ff7a00" d="M12 6v4a1 1 0 0 0 1 1h9V9h-8V7h9V5H13a1 1 0 0 0-1 1zM12 13h2v2h-2zM16 13h2v2h-2zM30.89 8.55l-2-4a1 1 0 0 0-1.79 0l-2 4A1 1 0 0 0 25 9v22a1 1 0 0 0 1 1h4a1 1 0 0 0 1-1V9a1 1 0 0 0-.11-.45zM29 30h-2v-3h2zm0-5h-2V10h2z"/></g></svg>