<svg xmlns="http://www.w3.org/2000/svg" viewBox="0 0 32 32"><path fill= "#f7d454" d="M29.58 13.19 17.46 4.47a2.51 2.51 0 0 0-2.92 0L2.42 13.19a1 1 0 1 0 1.16 1.62L15.7 6.1a.51.51 0 0 1 .6 0l8.7 6.26v14a.65.65 0 0 1-.66.66H23V22a1 1 0 0 0-1-1h-5v-4h4v1a1 1 0 0 0 2 0v-2a1 1 0 0 0-1-1h-6a1 1 0 0 0-1 1v5h-5a1 1 0 0 0-1 1v5H7.66a.65.65 0 0 1-.66-.66V16a1 1 0 0 0-2 0v10.34A2.66 2.66 0 0 0 7.66 29h16.68A2.66 2.66 0 0 0 27 26.34V13.79l1.42 1A1 1 0 0 0 29 15a1 1 0 0 0 .81-.42 1 1 0 0 0-.23-1.39zM11 23h4v4h-4zm6 4v-4h4v4z"/></svg>